G04 Layer: TopSolderMaskLayer*
G04 EasyEDA v6.1.52, Sun, 13 Oct 2019 16:49:43 GMT*
G04 017f6ad9517e406d9769b934d1664338,d60483f80e02402a9409f1f04c283df6,10*
G04 Gerber Generator version 0.2*
G04 Scale: 100 percent, Rotated: No, Reflected: No *
G04 Dimensions in millimeters *
G04 leading zeros omitted , absolute positions ,3 integer and 3 decimal *
%FSLAX33Y33*%
%MOMM*%
G90*
G71D02*

%ADD25C,2.103196*%
%ADD27C,1.727200*%
%ADD32R,1.203198X1.303198*%

%LPD*%
G54D25*
G01X53848Y12319D03*
G01X53848Y14859D03*
G01X53848Y17399D03*
G01X53848Y19939D03*
G01X53848Y22479D03*
G01X53848Y25019D03*
G01X53848Y27559D03*
G01X53848Y30099D03*
G01X30988Y30099D03*
G01X30988Y27559D03*
G01X30988Y25019D03*
G01X30988Y22479D03*
G01X30988Y19939D03*
G01X30988Y17399D03*
G01X30988Y14859D03*
G01X30988Y12319D03*
G36*
G01X24536Y23012D02*
G01X24536Y24739D01*
G01X26263Y24739D01*
G01X26263Y23012D01*
G01X24536Y23012D01*
G37*
G54D27*
G01X25400Y21187D03*
G01X25400Y18542D03*
G36*
G01X45354Y18851D02*
G01X45354Y19756D01*
G01X46807Y19756D01*
G01X46807Y18851D01*
G01X45354Y18851D01*
G37*
G36*
G01X42854Y17901D02*
G01X42854Y18806D01*
G01X44307Y18806D01*
G01X44307Y17901D01*
G01X42854Y17901D01*
G37*
G36*
G01X42854Y19801D02*
G01X42854Y20706D01*
G01X44307Y20706D01*
G01X44307Y19801D01*
G01X42854Y19801D01*
G37*
G36*
G01X48437Y28371D02*
G01X48437Y29845D01*
G01X50114Y29845D01*
G01X50114Y28371D01*
G01X48437Y28371D01*
G37*
G36*
G01X48437Y24257D02*
G01X48437Y25730D01*
G01X50114Y25730D01*
G01X50114Y24257D01*
G01X48437Y24257D01*
G37*
G36*
G01X39606Y18130D02*
G01X39606Y19331D01*
G01X40911Y19331D01*
G01X40911Y18130D01*
G01X39606Y18130D01*
G37*
G36*
G01X39606Y19530D02*
G01X39606Y20731D01*
G01X40911Y20731D01*
G01X40911Y19530D01*
G01X39606Y19530D01*
G37*
G36*
G01X35641Y19367D02*
G01X35641Y21018D01*
G01X37002Y21018D01*
G01X37002Y19367D01*
G01X35641Y19367D01*
G37*
G36*
G01X33609Y19367D02*
G01X33609Y21018D01*
G01X34970Y21018D01*
G01X34970Y19367D01*
G01X33609Y19367D01*
G37*
G54D32*
G01X39050Y28448D03*
G01X40451Y28448D03*
G36*
G01X48623Y15339D02*
G01X48623Y16540D01*
G01X49928Y16540D01*
G01X49928Y15339D01*
G01X48623Y15339D01*
G37*
G36*
G01X48623Y13939D02*
G01X48623Y15140D01*
G01X49928Y15140D01*
G01X49928Y13939D01*
G01X48623Y13939D01*
G37*
G36*
G01X35542Y23845D02*
G01X35542Y25046D01*
G01X36847Y25046D01*
G01X36847Y23845D01*
G01X35542Y23845D01*
G37*
G36*
G01X35542Y25245D02*
G01X35542Y26446D01*
G01X36847Y26446D01*
G01X36847Y25245D01*
G01X35542Y25245D01*
G37*
G01X34859Y28448D03*
G01X36260Y28448D03*
G36*
G01X44803Y26525D02*
G01X44803Y27830D01*
G01X46004Y27830D01*
G01X46004Y26525D01*
G01X44803Y26525D01*
G37*
G36*
G01X43403Y26525D02*
G01X43403Y27830D01*
G01X44604Y27830D01*
G01X44604Y26525D01*
G01X43403Y26525D01*
G37*
M00*
M02*
