G04 Layer: BottomSilkLayer*
G04 EasyEDA v6.1.52, Sun, 13 Oct 2019 16:49:43 GMT*
G04 017f6ad9517e406d9769b934d1664338,d60483f80e02402a9409f1f04c283df6,10*
G04 Gerber Generator version 0.2*
G04 Scale: 100 percent, Rotated: No, Reflected: No *
G04 Dimensions in millimeters *
G04 leading zeros omitted , absolute positions ,3 integer and 3 decimal *
%FSLAX33Y33*%
%MOMM*%
G90*
G71D02*

%ADD10C,0.254000*%
%ADD24C,0.152400*%

%LPD*%
G54D10*
G01X56388Y4699D02*
G01X56388Y36449D01*
G01X53848Y38989D01*
G01X30988Y38989D01*
G01X28448Y36449D01*
G01X28448Y4445D01*
G01X29718Y3175D01*
G01X54864Y3175D01*
G01X56388Y4699D01*
G01X46228Y3937D02*
G01X46228Y8509D01*
G01X38354Y8509D01*
G01X38354Y3937D01*
G01X46228Y3937D01*
G01X55118Y4953D02*
G01X55118Y8001D01*
G01X52324Y8001D01*
G01X52324Y4953D01*
G01X55118Y4953D01*
G01X38608Y32639D02*
G01X45974Y32639D01*
G01X46228Y32385D01*
G01X46228Y34925D01*
G01X45974Y35179D01*
G01X44958Y35179D01*
G01X44958Y33655D01*
G01X43688Y33655D01*
G01X43688Y35179D01*
G01X42672Y35179D01*
G01X42418Y34925D01*
G01X42418Y33655D01*
G01X41148Y33655D01*
G01X41148Y35179D01*
G01X39878Y35179D01*
G01X39878Y33655D01*
G01X38608Y33655D01*
G01X38608Y35179D01*
G01X47244Y22987D02*
G01X47244Y37211D01*
G01X37338Y37211D01*
G01X37338Y22987D01*
G01X47244Y22987D01*
G01X2794Y37338D02*
G01X2794Y5038D01*
G01X27093Y5038D01*
G01X27093Y37338D01*
G01X2794Y37338D01*
G54D24*
G01X57731Y20955D02*
G01X56954Y20955D01*
G01X56796Y21005D01*
G01X56692Y21109D01*
G01X56642Y21267D01*
G01X56642Y21371D01*
G01X56692Y21526D01*
G01X56796Y21630D01*
G01X56954Y21681D01*
G01X57731Y21681D01*
G01X57472Y22077D02*
G01X57525Y22077D01*
G01X57630Y22128D01*
G01X57680Y22181D01*
G01X57731Y22285D01*
G01X57731Y22491D01*
G01X57680Y22595D01*
G01X57630Y22649D01*
G01X57525Y22699D01*
G01X57421Y22699D01*
G01X57317Y22649D01*
G01X57160Y22545D01*
G01X56642Y22024D01*
G01X56642Y22753D01*
G01X1450Y21336D02*
G01X2227Y21336D01*
G01X2385Y21285D01*
G01X2489Y21181D01*
G01X2540Y21023D01*
G01X2540Y20919D01*
G01X2489Y20764D01*
G01X2385Y20660D01*
G01X2227Y20609D01*
G01X1450Y20609D01*
G01X1656Y20266D02*
G01X1605Y20162D01*
G01X1450Y20005D01*
G01X2540Y20005D01*
G54D10*
G75*
G01X51847Y35941D02*
G03X51847Y35941I-1047J0D01*
G01*
G75*
G01X50927Y35941D02*
G03X50927Y35941I-127J0D01*
G01*
M00*
M02*
